<?xml version="1.0" standalone="no"?>
<!DOCTYPE svg PUBLIC "-//W3C//DTD SVG 20010904//EN"
 "http://www.w3.org/TR/2001/REC-SVG-20010904/DTD/svg10.dtd">
<svg version="1.0" xmlns="http://www.w3.org/2000/svg"
 width="705.000000pt" height="705.000000pt" viewBox="0 0 705.000000 705.000000"
 preserveAspectRatio="xMidYMid meet">
<metadata>
Created by potrace 1.11, written by Peter Selinger 2001-2013
</metadata>
<g transform="translate(0.000000,705.000000) scale(0.100000,-0.100000)"
fill="#000000" stroke="none">
<path d="M3299 6796 c-2 -2 -42 -6 -89 -10 -47 -4 -101 -9 -120 -12 -391 -57
-740 -175 -1055 -357 -68 -39 -265 -166 -275 -177 -3 -3 -45 -37 -95 -75 -237
-184 -496 -480 -667 -763 -129 -214 -278 -569 -323 -772 -2 -8 -10 -45 -19
-82 -26 -113 -54 -289 -63 -393 -13 -176 -7 -554 12 -607 2 -7 6 -35 9 -63 9
-83 44 -248 82 -377 141 -487 413 -934 781 -1288 124 -119 129 -123 239 -207
354 -269 766 -455 1204 -542 87 -18 94 -19 150 -26 29 -4 60 -8 69 -10 49 -9
204 -18 330 -19 239 -2 472 24 701 78 226 54 455 141 668 251 67 36 135 73
150 83 15 10 54 36 87 57 278 176 565 452 771 740 110 154 244 395 309 555 14
36 30 74 35 85 54 118 148 486 166 650 3 27 7 55 9 62 8 24 19 232 18 343 -1
197 -16 352 -54 550 -25 127 -76 307 -131 455 -41 109 -58 143 -58 115 -2 -55
-32 -174 -51 -201 -44 -62 -117 -74 -214 -34 -71 30 -79 30 -67 8 18 -34 73
-205 97 -301 56 -228 75 -395 70 -652 -2 -113 -5 -214 -8 -225 -3 -11 -8 -47
-12 -80 -21 -187 -98 -454 -192 -663 -374 -841 -1169 -1399 -2088 -1469 -145
-10 -379 -5 -495 12 -14 2 -42 6 -62 9 -33 4 -80 12 -128 21 -8 2 -37 9 -65
15 -27 6 -58 13 -68 15 -139 29 -466 162 -612 250 -22 13 -47 27 -55 31 -23
11 -214 142 -236 162 -10 9 -47 40 -82 67 -179 143 -406 414 -550 656 -142
238 -276 623 -307 878 -4 30 -8 61 -10 70 -17 91 -23 378 -11 501 20 185 31
252 62 375 75 298 188 560 344 792 386 574 957 952 1630 1078 82 15 105 18
268 34 125 12 392 5 522 -15 164 -24 273 -49 415 -93 172 -54 394 -152 443
-195 62 -55 67 -117 17 -210 l-35 -66 33 5 c17 2 111 7 207 10 298 9 465 17
469 21 2 2 -33 117 -79 256 -45 139 -91 282 -103 318 -63 196 -70 213 -81 197
-6 -8 -28 -43 -48 -76 -64 -103 -125 -120 -238 -65 -201 97 -360 160 -527 208
-102 29 -292 71 -363 81 -25 3 -61 8 -80 10 -19 3 -57 8 -85 11 -58 7 -460 15
-466 10z"/>
<path d="M2365 5448 c-237 -30 -415 -174 -499 -403 -29 -80 -29 -82 -32 -340
-2 -143 -4 -289 -4 -326 l0 -65 -101 1 c-117 1 -156 -12 -175 -60 -10 -24 -9
-37 2 -63 19 -46 59 -59 177 -58 l97 1 0 -45 c1 -25 2 -217 3 -427 l2 -381 23
-25 c13 -14 34 -27 47 -29 32 -7 81 16 95 42 9 16 12 142 14 444 l1 421 157 0
c150 1 158 2 182 24 30 29 40 66 26 100 -20 49 -42 55 -210 56 l-155 0 -2 288
c-1 196 3 304 11 340 45 191 212 327 403 328 80 0 108 -7 183 -43 74 -36 144
-101 183 -172 32 -57 45 -102 53 -182 5 -48 11 -64 35 -86 46 -44 110 -32 133
24 26 60 0 204 -57 318 -38 78 -158 203 -232 244 -111 61 -245 88 -360 74z"/>
<path d="M4955 4473 c-137 -14 -225 -43 -315 -104 -165 -111 -258 -284 -264
-489 -4 -121 13 -205 63 -305 77 -156 217 -269 389 -315 106 -28 259 -20 336
16 56 27 69 75 36 129 -25 41 -55 47 -140 30 -149 -31 -289 12 -392 123 -47
50 -90 130 -101 189 l-6 31 463 0 c410 0 467 2 495 17 41 21 54 56 47 130 -23
274 -248 509 -518 541 -29 4 -55 7 -58 8 -3 1 -18 0 -35 -1z m198 -226 c107
-53 196 -158 221 -259 6 -25 4 -28 -21 -29 -33 0 -763 0 -780 0 -29 2 33 132
91 195 90 96 192 138 328 133 76 -3 95 -7 161 -40z"/>
<path d="M3888 4459 c-40 -23 -42 -44 -44 -374 -1 -176 -5 -338 -9 -360 -4
-22 -20 -66 -37 -98 -79 -158 -240 -249 -410 -233 -177 16 -332 153 -369 326
-7 32 -12 177 -13 372 l-1 320 -30 24 c-40 32 -85 31 -119 -2 -30 -31 -28 -1
-28 -391 0 -320 4 -358 49 -468 148 -356 595 -477 905 -245 28 22 54 38 57 36
8 -5 5 -672 -2 -712 -28 -137 -107 -238 -236 -302 -71 -35 -81 -37 -170 -37
-105 0 -163 16 -236 66 -109 74 -168 175 -185 318 -11 89 -37 121 -96 121 -56
0 -84 -38 -84 -114 0 -197 126 -402 310 -504 99 -54 153 -67 285 -67 146 0
218 21 330 97 140 93 234 240 262 408 9 51 9 1746 0 1773 -16 50 -83 74 -129
46z"/>
<path d="M59 3692 c-43 -22 -61 -56 -55 -107 12 -99 150 -126 197 -38 51 95
-45 193 -142 145z"/>
<path d="M6894 3694 c-49 -24 -71 -82 -52 -136 11 -31 64 -68 97 -68 54 0 111
57 111 110 0 29 -26 77 -49 89 -34 19 -76 20 -107 5z"/>
<path d="M392 2621 c-8 -4 -12 -19 -10 -32 3 -21 -8 -28 -112 -74 -146 -64
-143 -62 -130 -86 13 -24 20 -24 78 2 26 12 81 37 123 55 l77 32 11 -24 c12
-26 36 -32 44 -11 3 8 1 20 -4 28 -14 23 -11 26 36 45 l45 17 22 -28 c20 -26
22 -26 34 -10 11 15 10 23 -2 47 -23 44 -55 51 -115 28 l-51 -20 -16 20 c-11
13 -22 17 -30 11z"/>
<path d="M6521 2534 c-35 -31 -54 -91 -39 -118 13 -24 -1 -20 -78 18 -51 25
-74 31 -86 25 -32 -17 -23 -30 47 -67 101 -53 323 -154 347 -159 24 -5 28 -2
28 18 0 21 -15 32 -102 74 -113 55 -133 77 -116 126 22 64 59 66 178 11 107
-51 124 -54 128 -24 3 19 -9 28 -95 68 -129 61 -169 66 -212 28z"/>
<path d="M590 2084 c-56 -16 -104 -58 -125 -107 -21 -50 -19 -82 7 -128 47
-85 164 -92 246 -15 64 59 78 121 43 186 -33 62 -99 86 -171 64z m117 -70 c59
-59 -10 -169 -115 -181 -31 -4 -43 0 -65 23 -33 33 -35 70 -4 114 47 69 137
91 184 44z"/>
<path d="M6123 2023 c-4 -11 4 -25 26 -43 26 -22 31 -32 26 -53 -8 -32 10 -44
34 -23 16 15 25 10 125 -66 99 -76 108 -80 123 -65 15 15 15 18 -2 37 -10 12
-59 50 -107 86 -76 57 -87 69 -82 89 9 37 -4 49 -33 30 -24 -16 -26 -16 -47 4
-27 25 -54 27 -63 4z"/>
<path d="M999 1594 c-130 -121 -170 -165 -166 -177 9 -27 48 -9 117 56 78 73
108 82 166 53 31 -17 44 -13 44 13 0 26 -20 41 -57 41 -31 0 -32 2 -21 20 10
16 10 23 -4 36 -15 16 -21 13 -79 -42z"/>
<path d="M5921 1618 c-5 -13 -7 -33 -6 -45 3 -25 -5 -29 -23 -11 -8 8 -15 8
-27 -2 -8 -7 -15 -16 -15 -20 0 -4 49 -58 109 -119 77 -79 113 -109 125 -105
29 11 17 39 -45 99 -89 88 -98 111 -70 178 6 16 9 33 5 38 -10 18 -45 9 -53
-13z"/>
<path d="M5482 1235 c5 -22 2 -25 -21 -23 -34 2 -84 -27 -105 -62 -42 -71 2
-192 86 -236 64 -33 163 -1 175 57 6 32 13 35 31 17 10 -10 16 -9 28 4 16 15
10 26 -71 142 -62 87 -95 126 -108 126 -15 0 -18 -5 -15 -25z m21 -76 c45 -24
87 -87 87 -132 0 -32 -33 -73 -64 -79 -60 -12 -136 69 -136 145 0 59 60 94
113 66z"/>
<path d="M1821 993 c-5 -10 -9 -21 -9 -26 0 -8 -15 -129 -17 -137 -1 -3 -5
-34 -9 -70 -8 -60 -12 -68 -57 -113 -54 -53 -56 -59 -34 -77 13 -11 30 2 108
78 50 50 125 121 165 159 70 66 87 98 57 109 -9 4 -45 -25 -99 -80 -47 -47
-87 -86 -89 -86 -2 0 4 53 14 118 11 64 17 123 14 130 -6 18 -33 15 -44 -5z"/>
<path d="M4830 861 c-72 -38 -93 -127 -51 -215 40 -83 117 -115 194 -82 57 24
105 81 93 112 -8 22 -32 16 -44 -11 -29 -63 -125 -85 -168 -38 l-26 28 104 50
c57 27 104 55 103 60 -2 25 -42 75 -75 94 -46 26 -85 27 -130 2z m124 -60 l28
-30 -65 -30 c-101 -45 -107 -46 -109 -19 -3 46 3 63 28 86 36 32 83 29 118 -7z"/>
<path d="M2515 760 c-47 -10 -69 -26 -99 -69 -68 -97 -38 -232 58 -265 118
-40 230 91 195 230 -18 70 -89 118 -154 104z m83 -76 c45 -50 17 -176 -47
-209 -64 -32 -126 24 -116 105 15 118 100 172 163 104z"/>
<path d="M3046 598 c-23 -141 -23 -218 0 -256 22 -38 76 -62 131 -57 79 6 108
44 119 155 14 137 12 165 -13 168 -26 4 -30 -8 -38 -114 -8 -107 -17 -137 -46
-151 -37 -19 -68 -15 -95 12 -24 24 -25 29 -18 103 13 144 12 167 -13 170 -18
3 -23 -3 -27 -30z"/>
<path d="M3827 600 l-25 -29 -6 25 c-5 19 -12 25 -29 22 -25 -3 -26 -16 -13
-163 14 -175 17 -182 50 -169 16 6 17 17 11 116 -8 122 1 151 55 169 16 6 31
17 34 26 17 42 -42 45 -77 3z"/>
</g>
</svg>
